<svg id="visual" viewBox="0 0 900 600" width="900" height="600" xmlns="http://www.w3.org/2000/svg" xmlns:xlink="http://www.w3.org/1999/xlink" version="1.1"><rect x="0" y="0" width="900" height="600" fill="#001122"></rect><path d="M0 117L25 120.3C50 123.7 100 130.3 150 133.3C200 136.3 250 135.7 300 138.2C350 140.7 400 146.3 450 140.7C500 135 550 118 600 115.2C650 112.3 700 123.7 750 123.5C800 123.3 850 111.7 875 105.8L900 100L900 0L875 0C850 0 800 0 750 0C700 0 650 0 600 0C550 0 500 0 450 0C400 0 350 0 300 0C250 0 200 0 150 0C100 0 50 0 25 0L0 0Z" fill="#009473" stroke-linecap="round" stroke-linejoin="miter"></path></svg>