<svg id="visual" viewBox="0 0 900 100" width="900" height="100" xmlns="http://www.w3.org/2000/svg" xmlns:xlink="http://www.w3.org/1999/xlink" version="1.1"><rect x="0" y="0" width="900" height="100" fill="#001122"></rect><path d="M0 11L9.3 15.5C18.7 20 37.3 29 56.2 30.2C75 31.3 94 24.7 112.8 20.3C131.7 16 150.3 14 169 24.5C187.7 35 206.3 58 225 58C243.7 58 262.3 35 281.2 23.5C300 12 319 12 337.8 14C356.7 16 375.3 20 394 32.5C412.7 45 431.3 66 450 74C468.7 82 487.3 77 506.2 65.2C525 53.3 544 34.7 562.8 27.7C581.7 20.7 600.3 25.3 619 24.2C637.7 23 656.3 16 675 22.8C693.7 29.7 712.3 50.3 731.2 51.8C750 53.3 769 35.7 787.8 27.2C806.7 18.7 825.3 19.3 844 22C862.7 24.7 881.3 29.3 890.7 31.7L900 34L900 0L890.7 0C881.3 0 862.7 0 844 0C825.3 0 806.7 0 787.8 0C769 0 750 0 731.2 0C712.3 0 693.7 0 675 0C656.3 0 637.7 0 619 0C600.3 0 581.7 0 562.8 0C544 0 525 0 506.2 0C487.3 0 468.7 0 450 0C431.3 0 412.7 0 394 0C375.3 0 356.7 0 337.8 0C319 0 300 0 281.2 0C262.3 0 243.7 0 225 0C206.3 0 187.7 0 169 0C150.3 0 131.7 0 112.8 0C94 0 75 0 56.2 0C37.3 0 18.7 0 9.3 0L0 0Z" fill="#009473" stroke-linecap="round" stroke-linejoin="miter"></path></svg>