<svg id="visual" viewBox="0 0 900 100" width="900" height="100" xmlns="http://www.w3.org/2000/svg" xmlns:xlink="http://www.w3.org/1999/xlink" version="1.1"><rect x="0" y="0" width="900" height="100" fill="#001220"></rect><path d="M0 77L12.5 76C25 75 50 73 75 72.3C100 71.7 125 72.3 150 75.5C175 78.7 200 84.3 225 83.7C250 83 275 76 300 72.2C325 68.3 350 67.7 375 66.3C400 65 425 63 450 65.3C475 67.7 500 74.3 525 73.5C550 72.7 575 64.3 600 63.2C625 62 650 68 675 72C700 76 725 78 750 77.7C775 77.3 800 74.7 825 73C850 71.3 875 70.7 887.5 70.3L900 70L900 0L887.5 0C875 0 850 0 825 0C800 0 775 0 750 0C725 0 700 0 675 0C650 0 625 0 600 0C575 0 550 0 525 0C500 0 475 0 450 0C425 0 400 0 375 0C350 0 325 0 300 0C275 0 250 0 225 0C200 0 175 0 150 0C125 0 100 0 75 0C50 0 25 0 12.5 0L0 0Z" fill="#9e9e9e"></path><path d="M0 47L12.5 47.3C25 47.7 50 48.3 75 49.5C100 50.7 125 52.3 150 51.7C175 51 200 48 225 48.3C250 48.7 275 52.3 300 52.7C325 53 350 50 375 48C400 46 425 45 450 46C475 47 500 50 525 50C550 50 575 47 600 47.8C625 48.7 650 53.3 675 57.2C700 61 725 64 750 64.7C775 65.3 800 63.7 825 59.2C850 54.7 875 47.3 887.5 43.7L900 40L900 0L887.5 0C875 0 850 0 825 0C800 0 775 0 750 0C725 0 700 0 675 0C650 0 625 0 600 0C575 0 550 0 525 0C500 0 475 0 450 0C425 0 400 0 375 0C350 0 325 0 300 0C275 0 250 0 225 0C200 0 175 0 150 0C125 0 100 0 75 0C50 0 25 0 12.5 0L0 0Z" fill="#7b9c8f"></path><path d="M0 32L12.5 32.3C25 32.7 50 33.3 75 35.5C100 37.7 125 41.3 150 42.7C175 44 200 43 225 44.2C250 45.3 275 48.7 300 45.5C325 42.3 350 32.7 375 32.7C400 32.7 425 42.3 450 47.2C475 52 500 52 525 49.5C550 47 575 42 600 41C625 40 650 43 675 42.8C700 42.7 725 39.3 750 39C775 38.7 800 41.3 825 39.5C850 37.7 875 31.3 887.5 28.2L900 25L900 0L887.5 0C875 0 850 0 825 0C800 0 775 0 750 0C725 0 700 0 675 0C650 0 625 0 600 0C575 0 550 0 525 0C500 0 475 0 450 0C425 0 400 0 375 0C350 0 325 0 300 0C275 0 250 0 225 0C200 0 175 0 150 0C125 0 100 0 75 0C50 0 25 0 12.5 0L0 0Z" fill="#539881"></path><path d="M0 20L12.5 20.8C25 21.7 50 23.3 75 24.2C100 25 125 25 150 23.8C175 22.7 200 20.3 225 20.3C250 20.3 275 22.7 300 23.3C325 24 350 23 375 20.3C400 17.7 425 13.3 450 14.3C475 15.3 500 21.7 525 24.8C550 28 575 28 600 28.3C625 28.7 650 29.3 675 25.5C700 21.7 725 13.3 750 12.2C775 11 800 17 825 20.2C850 23.3 875 23.7 887.5 23.8L900 24L900 0L887.5 0C875 0 850 0 825 0C800 0 775 0 750 0C725 0 700 0 675 0C650 0 625 0 600 0C575 0 550 0 525 0C500 0 475 0 450 0C425 0 400 0 375 0C350 0 325 0 300 0C275 0 250 0 225 0C200 0 175 0 150 0C125 0 100 0 75 0C50 0 25 0 12.5 0L0 0Z" fill="#009473"></path></svg>