<svg id="visual" viewBox="0 0 900 100" width="900" height="100" xmlns="http://www.w3.org/2000/svg" xmlns:xlink="http://www.w3.org/1999/xlink" version="1.1"><rect x="0" y="0" width="900" height="100" fill="#9e9e9e"></rect><path d="M0 43L10 44.7C20 46.3 40 49.7 60 52C80 54.3 100 55.7 120 51.3C140 47 160 37 180 31.5C200 26 220 25 240 22.7C260 20.3 280 16.7 300 21.3C320 26 340 39 360 40.8C380 42.7 400 33.3 420 32.2C440 31 460 38 480 43.3C500 48.7 520 52.3 540 46.8C560 41.3 580 26.7 600 21.7C620 16.7 640 21.3 660 27C680 32.7 700 39.3 720 44.3C740 49.3 760 52.7 780 49.3C800 46 820 36 840 29.7C860 23.3 880 20.7 890 19.3L900 18L900 101L890 101C880 101 860 101 840 101C820 101 800 101 780 101C760 101 740 101 720 101C700 101 680 101 660 101C640 101 620 101 600 101C580 101 560 101 540 101C520 101 500 101 480 101C460 101 440 101 420 101C400 101 380 101 360 101C340 101 320 101 300 101C280 101 260 101 240 101C220 101 200 101 180 101C160 101 140 101 120 101C100 101 80 101 60 101C40 101 20 101 10 101L0 101Z" fill="#ffffff"></path><path d="M0 53L10 53.5C20 54 40 55 60 57.3C80 59.7 100 63.3 120 63.7C140 64 160 61 180 57C200 53 220 48 240 47C260 46 280 49 300 49.8C320 50.7 340 49.3 360 47.7C380 46 400 44 420 45.5C440 47 460 52 480 52.3C500 52.7 520 48.3 540 47.8C560 47.3 580 50.7 600 51.8C620 53 640 52 660 54.3C680 56.7 700 62.3 720 60.8C740 59.3 760 50.7 780 44.7C800 38.7 820 35.3 840 33C860 30.7 880 29.3 890 28.7L900 28L900 101L890 101C880 101 860 101 840 101C820 101 800 101 780 101C760 101 740 101 720 101C700 101 680 101 660 101C640 101 620 101 600 101C580 101 560 101 540 101C520 101 500 101 480 101C460 101 440 101 420 101C400 101 380 101 360 101C340 101 320 101 300 101C280 101 260 101 240 101C220 101 200 101 180 101C160 101 140 101 120 101C100 101 80 101 60 101C40 101 20 101 10 101L0 101Z" fill="#b9dccf"></path><path d="M0 73L10 72C20 71 40 69 60 65.8C80 62.7 100 58.3 120 56.3C140 54.3 160 54.7 180 59C200 63.3 220 71.7 240 71C260 70.3 280 60.7 300 59.3C320 58 340 65 360 69.3C380 73.7 400 75.3 420 76.5C440 77.7 460 78.3 480 75.3C500 72.3 520 65.7 540 62.8C560 60 580 61 600 59.8C620 58.7 640 55.3 660 57.7C680 60 700 68 720 70.5C740 73 760 70 780 68.8C800 67.7 820 68.3 840 69C860 69.7 880 70.3 890 70.7L900 71L900 101L890 101C880 101 860 101 840 101C820 101 800 101 780 101C760 101 740 101 720 101C700 101 680 101 660 101C640 101 620 101 600 101C580 101 560 101 540 101C520 101 500 101 480 101C460 101 440 101 420 101C400 101 380 101 360 101C340 101 320 101 300 101C280 101 260 101 240 101C220 101 200 101 180 101C160 101 140 101 120 101C100 101 80 101 60 101C40 101 20 101 10 101L0 101Z" fill="#71b8a0"></path><path d="M0 80L10 78.5C20 77 40 74 60 75.5C80 77 100 83 120 84C140 85 160 81 180 79.8C200 78.7 220 80.3 240 80.8C260 81.3 280 80.7 300 78.3C320 76 340 72 360 71C380 70 400 72 420 72.2C440 72.3 460 70.7 480 72C500 73.3 520 77.7 540 80.8C560 84 580 86 600 83.8C620 81.7 640 75.3 660 73.3C680 71.3 700 73.7 720 74.8C740 76 760 76 780 76.5C800 77 820 78 840 78.3C860 78.7 880 78.3 890 78.2L900 78L900 101L890 101C880 101 860 101 840 101C820 101 800 101 780 101C760 101 740 101 720 101C700 101 680 101 660 101C640 101 620 101 600 101C580 101 560 101 540 101C520 101 500 101 480 101C460 101 440 101 420 101C400 101 380 101 360 101C340 101 320 101 300 101C280 101 260 101 240 101C220 101 200 101 180 101C160 101 140 101 120 101C100 101 80 101 60 101C40 101 20 101 10 101L0 101Z" fill="#009473"></path></svg>